<svg width="479" height="74" viewBox="0 0 479 74" fill="none" xmlns="http://www.w3.org/2000/svg">
<g clip-path="url(#clip0_1740_913)">
<g class="cca-logo-lockup-two__lettermark">
<path d="M37.1501 73.38C16.2242 73.38 0 57.6069 0 37.0008C0 16.3948 16.4008 0.380005 37.1501 0.380005C44.898 0.380005 51.1228 2.04958 57.5462 6.24549V19.69C50.306 13.3192 44.5669 10.7709 36.819 10.7709C22.14 10.7709 11.8315 21.6671 11.8315 37.0887C11.8315 52.5103 21.9634 62.7914 36.819 62.7914C44.898 62.7914 50.306 60.5946 57.7228 54.092V67.3168C50.6592 71.6885 44.898 73.358 37.1501 73.358" fill="#00B8B0"/>
<path d="M117.653 73.38C96.705 73.38 80.525 57.6289 80.525 37.0008C80.525 16.3728 96.8816 0.380005 117.653 0.380005C125.379 0.380005 131.648 2.04958 138.049 6.24549V19.69C130.765 13.3192 125.048 10.7709 117.322 10.7709C102.599 10.7709 92.3344 21.6671 92.3344 37.0887C92.3344 52.5103 102.444 62.7914 117.322 62.7914C125.379 62.7914 130.787 60.5946 138.204 54.07V67.2948C131.118 71.6665 125.379 73.358 117.653 73.358" fill="#00B8B0"/>
<path d="M176.744 2.33521L170.63 12.9897H214.446V71.6226H225.726V2.33521H176.744Z" fill="#00B8B0"/>
<path d="M185.154 25.3138C171.844 25.3138 161.006 36.1002 161.006 49.3469C161.006 62.5937 171.844 73.38 185.154 73.38C198.465 73.38 209.303 62.5937 209.303 49.3469C209.303 36.1002 198.465 25.3138 185.154 25.3138ZM185.154 63.6042C177.318 63.6042 170.939 57.1456 170.939 49.3469C170.939 41.5483 177.318 35.0896 185.154 35.0896C192.991 35.0896 199.37 41.5483 199.37 49.3469C199.37 57.1456 192.991 63.6042 185.154 63.6042Z" fill="#00B8B0"/>
</g>
<g class="cca-logo-lockup-two__workmark">
<path d="M256.386 35.2874C256.386 38.8242 259.101 41.5263 262.611 41.5263C264.973 41.5263 266.695 40.384 267.776 39L270.205 41.1529C268.593 43.1959 265.878 44.6238 262.545 44.6238C256.85 44.6238 252.877 40.4938 252.877 35.2874C252.877 30.0809 256.806 25.9509 262.501 25.9509C265.216 25.9509 267.534 26.9615 269.167 28.5432L266.894 30.9377C265.79 29.8393 264.267 29.0704 262.457 29.0704C258.991 29.0704 256.386 31.8384 256.386 35.3093V35.2874Z" />
<path d="M284.928 44.3601H281.661V43.3496C280.623 44.2283 279.409 44.6237 278.151 44.6237C276.275 44.6237 274.509 43.789 273.383 42.4928C272.39 41.3505 271.772 39.7908 271.772 38.0773C271.772 34.3646 274.531 31.5088 277.975 31.5088C279.409 31.5088 280.69 31.9701 281.683 32.7829V31.7724H284.95V44.3601H284.928ZM281.528 36.188C280.822 35.2434 279.696 34.6283 278.394 34.6283C276.407 34.6283 275.127 36.2539 275.127 38.0773C275.127 40.0544 276.562 41.5043 278.46 41.5043C279.74 41.5043 280.866 40.8892 281.506 39.9445V36.188H281.528Z" />
<path d="M292.345 44.3602H288.945V25.929H292.345V44.3602Z" />
<path d="M298.062 25.16C299.298 25.16 300.269 26.1047 300.269 27.3129C300.269 28.5212 299.276 29.4658 298.062 29.4658C296.848 29.4658 295.854 28.5212 295.854 27.3129C295.854 26.1047 296.848 25.16 298.062 25.16ZM299.761 44.3602H296.362V31.7724H299.761V44.3602Z" />
<path d="M312.41 28.7848C312.123 28.6969 311.703 28.6529 311.394 28.6529C310.555 28.6529 309.915 28.8946 309.496 29.3779C309.209 29.7513 309.032 30.2127 309.032 31.377V31.7724H312.939V34.6283H309.032V44.3601H305.633V34.6283H302.366V31.7724H305.633V31.2452C305.633 29.2241 306.096 27.9939 306.979 27.1371C307.862 26.2804 309.187 25.6653 310.909 25.6653C311.593 25.6653 312.211 25.7092 312.917 25.9069L312.387 28.7848H312.41Z" />
<path d="M320.842 31.5088C324.683 31.5088 327.574 34.4305 327.574 38.0773C327.574 41.724 324.683 44.6237 320.842 44.6237C317.001 44.6237 314.109 41.724 314.109 38.0773C314.109 34.4305 317.001 31.5088 320.842 31.5088ZM320.842 41.5043C322.828 41.5043 324.175 39.9665 324.175 38.0773C324.175 36.188 322.828 34.6283 320.842 34.6283C318.855 34.6283 317.509 36.188 317.509 38.0773C317.509 39.9665 318.855 41.5043 320.842 41.5043Z" />
<path d="M338.258 34.7601C338.015 34.6722 337.529 34.6283 337.022 34.6283C335.543 34.6283 334.351 35.6827 333.953 36.4516V44.3601H330.554V31.7724H333.821V33.0466C334.572 32.1019 335.962 31.5088 337.507 31.5088C337.993 31.5088 338.28 31.5527 338.655 31.6186L338.258 34.7601Z" />
<path d="M341.392 44.3601V31.7724H344.659V32.7829C345.631 32.0141 346.822 31.5088 348.235 31.5088C349.979 31.5088 351.568 32.2777 352.606 33.5299C353.445 34.5184 353.908 35.7926 353.908 37.9454V44.3601H350.509V37.6818C350.509 36.4296 350.222 35.7926 349.758 35.3312C349.317 34.8919 348.633 34.6283 347.86 34.6283C346.425 34.6283 345.255 35.5289 344.792 36.188V44.3601H341.392Z" />
<path d="M359.382 25.16C360.619 25.16 361.59 26.1047 361.59 27.3129C361.59 28.5212 360.596 29.4658 359.382 29.4658C358.168 29.4658 357.175 28.5212 357.175 27.3129C357.175 26.1047 358.168 25.16 359.382 25.16ZM361.082 44.3602H357.683V31.7724H361.082V44.3602Z" />
<path d="M377.218 44.3601H373.951V43.3496C372.914 44.2283 371.7 44.6237 370.441 44.6237C368.565 44.6237 366.799 43.789 365.673 42.4928C364.68 41.3505 364.062 39.7908 364.062 38.0773C364.062 34.3646 366.821 31.5088 370.265 31.5088C371.7 31.5088 372.98 31.9701 373.973 32.7829V31.7724H377.24V44.3601H377.218ZM373.819 36.188C373.112 35.2434 371.987 34.6283 370.684 34.6283C368.698 34.6283 367.417 36.2539 367.417 38.0773C367.417 40.0544 368.852 41.5043 370.75 41.5043C372.031 41.5043 373.156 40.8892 373.797 39.9445V36.188H373.819Z" />
<path d="M390.793 35.2874C390.793 38.8242 393.508 41.5263 397.018 41.5263C399.402 41.5263 401.102 40.384 402.183 39L404.612 41.1529C403 43.1959 400.285 44.6238 396.952 44.6238C391.257 44.6238 387.284 40.4938 387.284 35.2874C387.284 30.0809 391.213 25.9509 396.908 25.9509C399.623 25.9509 401.941 26.9615 403.574 28.5432L401.3 30.9377C400.197 29.8393 398.674 29.0704 396.864 29.0704C393.398 29.0704 390.793 31.8384 390.793 35.3093V35.2874Z" />
<path d="M412.889 31.5088C416.73 31.5088 419.622 34.4305 419.622 38.0773C419.622 41.724 416.73 44.6237 412.889 44.6237C409.048 44.6237 406.157 41.724 406.157 38.0773C406.157 34.4305 409.048 31.5088 412.889 31.5088ZM412.889 41.5043C414.876 41.5043 416.222 39.9665 416.222 38.0773C416.222 36.188 414.876 34.6283 412.889 34.6283C410.903 34.6283 409.556 36.188 409.556 38.0773C409.556 39.9665 410.903 41.5043 412.889 41.5043Z" />
<path d="M426.023 44.3602H422.624V25.929H426.023V44.3602Z" />
<path d="M433.418 44.3602H430.018V25.929H433.418V44.3602Z" />
<path d="M448.207 42.361C446.971 43.8109 444.984 44.6237 443.02 44.6237C439.245 44.6237 436.398 42.0315 436.398 38.0773C436.398 34.5843 438.804 31.5088 442.556 31.5088C446.044 31.5088 448.516 34.4305 448.516 37.9454C448.516 38.275 448.494 38.6265 448.428 38.912H439.665C439.841 40.6695 441.276 41.8997 443.086 41.8997C444.521 41.8997 445.669 41.0869 446.265 40.4498L448.185 42.361H448.207ZM445.051 36.4516C444.94 35.3312 443.925 34.2548 442.556 34.2548C441.188 34.2548 439.996 35.3093 439.841 36.4516H445.051Z" />
<path d="M463.879 43.6572C463.879 45.9199 463.482 47.2599 462.732 48.3364C461.584 49.9181 459.553 50.8627 457.125 50.8627C454.697 50.8627 452.291 49.7203 451.055 48.2705L453.196 46.0736C453.88 46.7986 455.05 47.897 457.125 47.897C458.229 47.897 459.134 47.5675 459.708 46.8865C460.237 46.3153 460.48 45.5464 460.48 43.9208V43.5034C459.465 44.2723 458.361 44.6457 457.081 44.6457C455.205 44.6457 453.394 43.8109 452.291 42.5148C451.297 41.3725 450.701 39.8127 450.701 38.0992C450.701 34.3866 453.461 31.5308 456.904 31.5308C458.339 31.5308 459.619 31.9921 460.613 32.8049V31.7944H463.879V43.6791V43.6572ZM460.48 36.188C459.774 35.2434 458.648 34.6283 457.346 34.6283C455.359 34.6283 454.079 36.2539 454.079 38.0773C454.079 40.0544 455.514 41.5043 457.412 41.5043C458.692 41.5043 459.818 40.8892 460.458 39.9445V36.188H460.48Z" />
<path d="M478.691 42.361C477.455 43.8109 475.468 44.6237 473.504 44.6237C469.729 44.6237 466.882 42.0315 466.882 38.0773C466.882 34.5843 469.288 31.5088 473.04 31.5088C476.528 31.5088 479 34.4305 479 37.9454C479 38.275 478.978 38.6265 478.912 38.912H470.148C470.325 40.6695 471.76 41.8997 473.57 41.8997C475.005 41.8997 476.152 41.0869 476.748 40.4498L478.669 42.361H478.691ZM475.534 36.4516C475.424 35.3312 474.409 34.2548 473.04 34.2548C471.672 34.2548 470.48 35.3093 470.325 36.4516H475.534Z" />
<path d="M259.72 58.7932C263.56 58.7932 266.452 61.715 266.452 65.3617C266.452 69.0084 263.56 71.9082 259.72 71.9082C255.879 71.9082 252.987 69.0084 252.987 65.3617C252.987 61.715 255.879 58.7932 259.72 58.7932ZM259.72 68.7887C261.706 68.7887 263.053 67.2509 263.053 65.3617C263.053 63.4724 261.706 61.9127 259.72 61.9127C257.733 61.9127 256.386 63.4724 256.386 65.3617C256.386 67.2509 257.733 68.7887 259.72 68.7887Z" />
<path d="M277.798 56.0692C277.511 55.9813 277.092 55.9374 276.783 55.9374C275.944 55.9374 275.304 56.179 274.884 56.6623C274.597 57.0358 274.421 57.4971 274.421 58.6614V59.0568H278.328V61.9127H274.421V71.6446H271.021V61.9127H267.754V59.0568H271.021V58.5296C271.021 56.5085 271.485 55.2783 272.368 54.4216C273.251 53.5648 274.575 52.9497 276.297 52.9497C276.981 52.9497 277.599 52.9936 278.306 53.1914L277.776 56.0692H277.798Z" />
<path d="M297.775 71.6445C297.333 71.7983 296.318 71.9081 295.656 71.9081C293.625 71.9081 292.146 71.2271 291.285 70.0848C290.623 69.228 290.336 68.1076 290.336 66.3282V61.9126H286.826V59.0568H290.336V55.5638H293.735V59.0568H297.907V61.9126H293.735V66.7236C293.735 67.4925 293.868 67.9758 294.155 68.3053C294.486 68.7008 295.037 68.9204 295.876 68.9204C296.362 68.9204 297.024 68.8326 297.267 68.7886L297.797 71.6445H297.775Z" />
<path d="M304.154 71.6445H300.755V53.2133H304.154V59.9575C305.103 59.2325 306.295 58.7932 307.597 58.7932C309.341 58.7932 310.931 59.562 311.968 60.8142C312.807 61.8028 313.27 63.0769 313.27 65.2298V71.6445H309.871V64.9662C309.871 63.714 309.584 63.0769 309.121 62.6156C308.679 62.1762 307.995 61.9126 307.222 61.9126C305.787 61.9126 304.617 62.8133 304.154 63.4724V71.6445Z" />
<path d="M327.839 69.6455C326.603 71.0954 324.616 71.9082 322.652 71.9082C318.877 71.9082 316.03 69.3159 316.03 65.3617C316.03 61.8687 318.436 58.7932 322.188 58.7932C325.676 58.7932 328.17 61.715 328.17 65.2299C328.17 65.5594 328.148 65.9109 328.082 66.1965H319.319C319.495 67.9539 320.93 69.1841 322.74 69.1841C324.175 69.1841 325.323 68.3713 325.919 67.7342L327.839 69.6455ZM324.683 63.736C324.572 62.6157 323.557 61.5392 322.188 61.5392C320.82 61.5392 319.628 62.5937 319.473 63.736H324.683Z" />
<path d="M336.36 71.6445L344.174 53.4769H346.646L354.46 71.6445H350.774L349.052 67.6244H341.723L340.002 71.6445H336.315H336.36ZM343.092 64.5049H347.728L345.41 59.1227L343.092 64.5049Z" />
<path d="M364.04 62.0445C363.797 61.9566 363.312 61.9127 362.804 61.9127C361.325 61.9127 360.155 62.9672 359.736 63.736V71.6445H356.336V59.0568H359.603V60.331C360.354 59.3864 361.744 58.7932 363.289 58.7932C363.775 58.7932 364.062 58.8371 364.437 58.9031L364.04 62.0445Z" />
<path d="M377.196 71.6445C376.754 71.7983 375.739 71.9081 375.077 71.9081C373.046 71.9081 371.567 71.2271 370.706 70.0848C370.044 69.228 369.757 68.1076 369.757 66.3282V61.9126H366.247V59.0568H369.757V55.5638H373.156V59.0568H377.328V61.9126H373.156V66.7236C373.156 67.4925 373.289 67.9758 373.576 68.3053C373.907 68.7008 374.459 68.9204 375.298 68.9204C375.783 68.9204 376.445 68.8326 376.688 68.7886L377.218 71.6445H377.196Z" />
<path d="M381.103 67.8001C381.964 68.569 383.288 69.0523 384.569 69.0523C385.474 69.0523 386.18 68.613 386.18 67.9979C386.18 66.1086 380.043 66.7676 380.043 62.7255C380.043 60.309 382.383 58.8152 384.9 58.8152C386.533 58.8152 388.343 59.4303 389.182 60.0893L387.593 62.5278C386.93 62.0665 386.07 61.671 385.165 61.671C384.26 61.671 383.443 62.0445 383.443 62.6816C383.443 64.3072 389.579 63.6701 389.579 68.0198C389.579 70.4363 387.217 71.9082 384.547 71.9082C382.803 71.9082 380.948 71.315 379.47 70.2166L381.103 67.8001Z" />
</g>
</g>
<defs>
<clipPath id="clip0_1740_913">
<rect width="479" height="73" fill="white" transform="translate(0 0.380005)"/>
</clipPath>
</defs>
</svg>
