<svg width="226" height="143" viewBox="0 0 226 143" fill="#000000" xmlns="http://www.w3.org/2000/svg">
<g clip-path="url(#clip0_1740_911)">
<g class="cca-logo-lockup-one__lettermark">
<path d="M37.0824 73.7772C16.2043 73.7772 0 57.9356 0 37.2112C0 16.4867 16.3806 0.380005 37.0824 0.380005C44.8208 0.380005 51.0379 2.05917 57.4535 6.27918V19.8009C50.2222 13.3935 44.4901 10.8306 36.7517 10.8306C22.0907 10.8306 11.817 21.7894 11.817 37.2996C11.817 52.8098 21.9143 63.1499 36.7517 63.1499C44.8208 63.1499 50.2222 60.9405 57.6299 54.4006V67.7013C50.575 72.0981 44.8428 73.7772 37.0824 73.7772Z" fill="#00B8B0"/>
<path d="M117.464 73.7772C96.5422 73.7772 80.382 57.9356 80.382 37.2112C80.382 16.4867 96.7406 0.380005 117.464 0.380005C125.181 0.380005 131.442 2.05917 137.836 6.27918V19.8009C130.56 13.3935 124.85 10.8306 117.134 10.8306C102.429 10.8306 92.177 21.7894 92.177 37.2996C92.177 52.8098 102.252 63.1499 117.134 63.1499C125.181 63.1499 130.56 60.9405 137.99 54.4006V67.7013C130.913 72.0981 125.181 73.7772 117.464 73.7772Z" fill="#00B8B0"/>
<path d="M176.483 2.34644L170.354 13.0622H214.117V72.0097H225.383V2.34644H176.483Z" fill="#00B8B0"/>
<path d="M184.861 25.457C171.567 25.457 160.742 36.2832 160.742 49.6061C160.742 62.9289 171.567 73.7772 184.861 73.7772C198.155 73.7772 208.958 62.9289 208.958 49.6061C208.958 36.2832 198.133 25.457 184.861 25.457ZM184.861 63.9453C177.034 63.9453 170.663 57.4496 170.663 49.6061C170.663 41.7626 177.034 35.2669 184.861 35.2669C192.688 35.2669 199.059 41.7626 199.059 49.6061C199.059 57.4496 192.688 63.9453 184.861 63.9453Z" fill="#00B8B0"/>
</g>
<g class="cca-logo-lockup-one__workmark">
<path d="M6.72422 105.571C6.72422 109.128 9.41391 111.824 12.8973 111.824C15.2342 111.824 16.9539 110.675 18.0121 109.283L20.4152 111.448C18.8058 113.503 16.1381 114.939 12.8311 114.939C7.20925 114.939 3.2629 110.785 3.2629 105.549C3.2629 100.312 7.16515 96.1587 12.787 96.1587C15.4767 96.1587 17.7696 97.175 19.379 98.7658L17.1302 101.174C16.0499 100.069 14.5287 99.2961 12.743 99.2961C9.30368 99.2961 6.72422 102.08 6.72422 105.549V105.571Z" />
<path d="M34.9439 114.696H31.7251V113.68C30.6889 114.563 29.4984 114.961 28.2417 114.961C26.3898 114.961 24.6261 114.121 23.5238 112.818C22.5537 111.669 21.9143 110.1 21.9143 108.377C21.9143 104.643 24.6481 101.771 28.0433 101.771C29.4543 101.771 30.733 102.235 31.7031 103.052V102.036H34.9219V114.696H34.9439ZM31.5928 106.477C30.8873 105.527 29.785 104.908 28.5063 104.908C26.5441 104.908 25.2875 106.543 25.2875 108.377C25.2875 110.365 26.6985 111.824 28.5945 111.824C29.8511 111.824 30.9755 111.205 31.6149 110.255V106.477H31.5928Z" />
<path d="M42.3075 114.696H38.9564V96.1587H42.3075V114.696Z" />
<path d="M47.9735 95.3855C49.186 95.3855 50.1561 96.3356 50.1561 97.5507C50.1561 98.7659 49.186 99.716 47.9735 99.716C46.7609 99.716 45.7909 98.7659 45.7909 97.5507C45.7909 96.3356 46.7609 95.3855 47.9735 95.3855ZM49.649 114.696H46.2979V102.036H49.649V114.696Z" />
<path d="M62.1274 99.0311C61.8408 98.9427 61.4219 98.8985 61.1133 98.8985C60.2975 98.8985 59.6361 99.1415 59.2393 99.6276C58.9527 100.003 58.7763 100.467 58.7763 101.638V102.036H62.6345V104.908H58.7763V114.696H55.4252V104.908H52.2064V102.036H55.4252V101.506C55.4252 99.473 55.8882 98.2357 56.7701 97.374C57.6519 96.5123 58.9527 95.8937 60.6723 95.8937C61.3337 95.8937 61.951 95.9379 62.6565 96.1367L62.1494 99.0311H62.1274Z" />
<path d="M70.461 101.771C74.253 101.771 77.1191 104.709 77.1191 108.377C77.1191 112.045 74.253 114.961 70.461 114.961C66.669 114.961 63.8029 112.045 63.8029 108.377C63.8029 104.709 66.669 101.771 70.461 101.771ZM70.461 111.824C72.4232 111.824 73.768 110.277 73.768 108.377C73.768 106.477 72.4232 104.908 70.461 104.908C68.4989 104.908 67.154 106.477 67.154 108.377C67.154 110.277 68.4989 111.824 70.461 111.824Z" />
<path d="M87.6794 105.041C87.4369 104.952 86.9519 104.908 86.4669 104.908C84.9898 104.908 83.8433 105.969 83.4244 106.742V114.696H80.0734V102.036H83.2922V103.317C84.0417 102.367 85.4086 101.771 86.9299 101.771C87.4149 101.771 87.7015 101.815 88.0542 101.881L87.6574 105.041H87.6794Z" />
<path d="M90.788 114.696V102.036H94.0068V103.052C94.9548 102.279 96.1454 101.771 97.5343 101.771C99.2539 101.771 100.841 102.544 101.877 103.803C102.693 104.798 103.178 106.079 103.178 108.244V114.696H99.8271V107.979C99.8271 106.72 99.5405 106.079 99.0775 105.615C98.6366 105.173 97.9752 104.908 97.2036 104.908C95.7926 104.908 94.6241 105.814 94.1611 106.477V114.696H90.8101H90.788Z" />
<path d="M108.536 95.3855C109.748 95.3855 110.718 96.3356 110.718 97.5507C110.718 98.7659 109.748 99.716 108.536 99.716C107.323 99.716 106.353 98.7659 106.353 97.5507C106.353 96.3356 107.323 95.3855 108.536 95.3855ZM110.211 114.696H106.86V102.036H110.211V114.696Z" />
<path d="M126.173 114.696H122.954V113.68C121.918 114.563 120.727 114.961 119.471 114.961C117.619 114.961 115.855 114.121 114.753 112.818C113.783 111.669 113.143 110.1 113.143 108.377C113.143 104.643 115.877 101.771 119.272 101.771C120.683 101.771 121.962 102.235 122.932 103.052V102.036H126.151V114.696H126.173ZM122.822 106.477C122.116 105.527 121.014 104.908 119.735 104.908C117.773 104.908 116.516 106.543 116.516 108.377C116.516 110.365 117.927 111.824 119.823 111.824C121.08 111.824 122.204 111.205 122.844 110.255V106.477H122.822Z" />
<path d="M139.335 105.571C139.335 109.128 142.024 111.824 145.508 111.824C147.845 111.824 149.564 110.675 150.623 109.283L153.026 111.448C151.416 113.503 148.749 114.939 145.442 114.939C139.82 114.939 135.873 110.785 135.873 105.549C135.873 100.312 139.776 96.1587 145.398 96.1587C148.087 96.1587 150.38 97.175 151.989 98.7658L149.741 101.174C148.66 100.069 147.139 99.2961 145.353 99.2961C141.914 99.2961 139.335 102.08 139.335 105.549V105.571Z" />
<path d="M161.205 101.771C164.997 101.771 167.863 104.709 167.863 108.377C167.863 112.045 164.997 114.961 161.205 114.961C157.413 114.961 154.547 112.045 154.547 108.377C154.547 104.709 157.413 101.771 161.205 101.771ZM161.205 111.824C163.167 111.824 164.512 110.277 164.512 108.377C164.512 106.477 163.167 104.908 161.205 104.908C159.243 104.908 157.898 106.477 157.898 108.377C157.898 110.277 159.243 111.824 161.205 111.824Z" />
<path d="M173.948 114.696H170.597V96.1587H173.948V114.696Z" />
<path d="M181.267 114.696H177.916V96.1587H181.267V114.696Z" />
<path d="M195.642 112.685C194.429 114.144 192.445 114.961 190.505 114.961C186.757 114.961 183.957 112.354 183.957 108.377C183.957 104.864 186.338 101.771 190.042 101.771C193.503 101.771 195.95 104.709 195.95 108.244C195.95 108.576 195.928 108.929 195.884 109.217H187.22C187.396 110.984 188.829 112.221 190.593 112.221C192.004 112.221 193.151 111.404 193.746 110.763L195.664 112.685H195.642ZM192.511 106.742C192.401 105.615 191.409 104.533 190.042 104.533C188.675 104.533 187.507 105.593 187.352 106.742H192.511Z" />
<path d="M211.163 113.989C211.163 116.265 210.766 117.612 210.038 118.695C208.914 120.286 206.886 121.236 204.482 121.236C202.079 121.236 199.72 120.087 198.464 118.629L200.58 116.419C201.242 117.148 202.41 118.253 204.482 118.253C205.563 118.253 206.467 117.922 207.04 117.237C207.547 116.662 207.812 115.889 207.812 114.254V113.834C206.797 114.608 205.717 114.983 204.46 114.983C202.609 114.983 200.823 114.144 199.72 112.84C198.75 111.691 198.155 110.122 198.155 108.399C198.155 104.665 200.889 101.793 204.284 101.793C205.695 101.793 206.974 102.257 207.944 103.074V102.058H211.163V114.011V113.989ZM207.812 106.477C207.106 105.527 206.004 104.908 204.725 104.908C202.763 104.908 201.506 106.543 201.506 108.377C201.506 110.365 202.917 111.824 204.813 111.824C206.07 111.824 207.194 111.205 207.834 110.255V106.477H207.812Z" />
<path d="M225.691 112.685C224.479 114.144 222.495 114.961 220.554 114.961C216.807 114.961 214.007 112.354 214.007 108.377C214.007 104.864 216.388 101.771 220.091 101.771C223.553 101.771 226 104.709 226 108.244C226 108.576 225.978 108.929 225.934 109.217H217.27C217.446 110.984 218.879 112.221 220.643 112.221C222.054 112.221 223.2 111.404 223.795 110.763L225.713 112.685H225.691ZM222.561 106.742C222.45 105.615 221.458 104.533 220.091 104.533C218.725 104.533 217.556 105.593 217.402 106.742H222.561Z" />
<path d="M10.0753 129.212C13.8894 129.212 16.7775 132.15 16.7775 135.818C16.7775 139.486 13.8894 142.402 10.0753 142.402C6.26124 142.402 3.37313 139.486 3.37313 135.818C3.37313 132.15 6.26124 129.212 10.0753 129.212ZM10.0753 139.265C12.0595 139.265 13.4044 137.718 13.4044 135.818C13.4044 133.918 12.0595 132.349 10.0753 132.349C8.09111 132.349 6.74627 133.918 6.74627 135.818C6.74627 137.718 8.09111 139.265 10.0753 139.265Z" />
<path d="M28.0874 126.472C27.8008 126.384 27.3819 126.34 27.0733 126.34C26.2355 126.34 25.5961 126.583 25.1773 127.069C24.8906 127.444 24.7143 127.908 24.7143 129.079V129.477H28.6165V132.349H24.7143V142.137H21.3411V132.349H18.1003V129.477H21.3411V128.947C21.3411 126.914 21.8041 125.677 22.686 124.815C23.5678 123.953 24.8906 123.335 26.6103 123.335C27.2937 123.335 27.911 123.379 28.6165 123.578L28.0874 126.472Z" />
<path d="M47.5105 142.115C47.0696 142.27 46.0554 142.38 45.4161 142.38C43.3878 142.38 41.9106 141.695 41.0508 140.546C40.4115 139.685 40.1249 138.558 40.1249 136.768V132.327H36.6195V129.455H40.1249V125.942H43.498V129.455H47.6648V132.327H43.498V137.144C43.498 137.917 43.6303 138.403 43.9169 138.734C44.2476 139.132 44.7988 139.353 45.6365 139.353C46.1216 139.353 46.7829 139.265 47.0034 139.221L47.5325 142.093L47.5105 142.115Z" />
<path d="M53.882 142.115H50.5088V123.578H53.882V130.361C54.8079 129.632 56.0205 129.19 57.3212 129.19C59.0629 129.19 60.6503 129.963 61.6865 131.222C62.5242 132.217 62.9872 133.498 62.9872 135.663V142.115H59.6141V135.398C59.6141 134.139 59.3275 133.498 58.8645 133.034C58.4236 132.592 57.7401 132.327 56.9685 132.327C55.5355 132.327 54.367 133.233 53.904 133.896V142.115H53.882Z" />
<path d="M77.2514 140.126C76.0388 141.585 74.0326 142.402 72.0704 142.402C68.3005 142.402 65.4785 139.795 65.4785 135.818C65.4785 132.305 67.8595 129.212 71.6075 129.212C75.0908 129.212 77.56 132.15 77.56 135.685C77.56 136.017 77.538 136.37 77.4719 136.658H68.7414C68.9178 138.425 70.3508 139.662 72.1366 139.662C73.5696 139.662 74.716 138.845 75.3113 138.204L77.2293 140.126H77.2514ZM74.0987 134.183C73.9885 133.056 72.9743 131.974 71.6075 131.974C70.2406 131.974 69.05 133.034 68.8957 134.183H74.0987Z" />
<path d="M84.8575 142.115L92.662 123.843H95.1312L102.936 142.115H99.276L97.5563 138.072H90.2589L88.5393 142.115H84.8795H84.8575ZM91.5597 134.934H96.1894L93.8746 129.521L91.5597 134.934Z" />
<path d="M112.438 132.482C112.195 132.393 111.71 132.349 111.225 132.349C109.748 132.349 108.58 133.41 108.161 134.183V142.137H104.788V129.477H108.028V130.758C108.778 129.808 110.167 129.212 111.688 129.212C112.173 129.212 112.46 129.256 112.835 129.322L112.438 132.482Z" />
<path d="M125.556 142.115C125.115 142.27 124.1 142.38 123.461 142.38C121.433 142.38 119.956 141.695 119.096 140.546C118.457 139.685 118.17 138.558 118.17 136.768V132.327H114.665V129.455H118.17V125.942H121.543V129.455H125.71V132.327H121.543V137.144C121.543 137.917 121.675 138.403 121.962 138.734C122.293 139.132 122.844 139.353 123.682 139.353C124.167 139.353 124.828 139.265 125.048 139.221L125.578 142.093L125.556 142.115Z" />
<path d="M129.458 138.27C130.318 139.044 131.64 139.53 132.919 139.53C133.823 139.53 134.529 139.088 134.529 138.469C134.529 136.569 128.422 137.254 128.422 133.167C128.422 130.736 130.759 129.234 133.25 129.234C134.881 129.234 136.689 129.853 137.505 130.515L135.917 132.968C135.278 132.504 134.418 132.106 133.492 132.106C132.566 132.106 131.773 132.482 131.773 133.122C131.773 134.757 137.88 134.117 137.88 138.491C137.88 140.922 135.521 142.402 132.853 142.402C131.111 142.402 129.259 141.806 127.782 140.701L129.414 138.27H129.458Z" />
</g>
</g>
<defs>
<clipPath id="clip0_1740_911">
<rect width="226" height="142" fill="white" transform="translate(0 0.380005)"/>
</clipPath>
</defs>
</svg>
