<svg width="625" height="79" viewBox="0 0 625 79" fill="none" xmlns="http://www.w3.org/2000/svg">
<g clip-path="url(#clip0_1740_912)">
<g class="cca-logo-lockup-three__lettermark">
<path d="M37.1714 73.6399C16.2335 73.6399 0 57.8106 0 37.1312C0 16.4517 16.4102 0.379883 37.1714 0.379883C44.9237 0.379883 51.152 2.05541 57.5792 6.26626V19.7586C50.3348 13.3652 44.5924 10.8078 36.8401 10.8078C22.1526 10.8078 11.8604 21.7428 11.8604 37.2193C11.8604 52.6959 21.998 63.0136 36.8401 63.0136C44.9237 63.0136 50.3348 60.8089 57.7558 54.2832V67.5551C50.6882 71.9423 44.9237 73.6179 37.1714 73.6179" fill="#00B8B0"/>
<path d="M117.72 73.6399C96.7604 73.6399 80.5711 57.8327 80.5711 37.1312C80.5711 16.4296 96.915 0.379883 117.72 0.379883C125.451 0.379883 131.723 2.05541 138.128 6.26626V19.7586C130.84 13.3652 125.119 10.8078 117.389 10.8078C102.657 10.8078 92.3873 21.7428 92.3873 37.2193C92.3873 52.6959 102.503 63.0136 117.389 63.0136C125.451 63.0136 130.84 60.8089 138.283 54.2832V67.5551C131.193 71.9423 125.451 73.6399 117.72 73.6399Z" fill="#00B8B0"/>
<path d="M176.846 2.34204L170.706 13.0345H214.547V71.8762H225.855V2.34204H176.846Z" fill="#00B8B0"/>
<path d="M185.238 25.4026C171.92 25.4026 161.076 36.2053 161.076 49.5213C161.076 62.8373 171.92 73.64 185.238 73.64C198.556 73.64 209.401 62.8153 209.401 49.5213C209.401 36.2273 198.556 25.4026 185.238 25.4026ZM185.238 63.8294C177.398 63.8294 171.015 57.3478 171.015 49.5213C171.015 41.6948 177.398 35.2132 185.238 35.2132C193.079 35.2132 199.462 41.6948 199.462 49.5213C199.462 57.3478 193.079 63.8294 185.238 63.8294Z" fill="#00B8B0"/>
</g>
<g class="cca-logo-lockup-three__workmark">
<path d="M256.511 62.7491C256.511 66.2986 259.228 69.0103 262.739 69.0103C265.103 69.0103 266.825 67.8638 267.908 66.4749L270.337 68.6355C268.725 70.6858 266.008 72.1188 262.673 72.1188C256.975 72.1188 252.999 67.9741 252.999 62.7491C252.999 57.5241 256.931 53.3794 262.629 53.3794C265.346 53.3794 267.665 54.3935 269.299 55.9809L267.024 58.3839C265.92 57.2816 264.396 56.51 262.585 56.51C259.117 56.51 256.511 59.2878 256.511 62.7711V62.7491Z" />
<path d="M285.069 71.8761H281.8V70.862C280.762 71.7438 279.547 72.1407 278.288 72.1407C276.411 72.1407 274.644 71.3029 273.518 70.0022C272.524 68.8558 271.905 67.2905 271.905 65.5709C271.905 61.845 274.666 58.979 278.112 58.979C279.547 58.979 280.828 59.442 281.822 60.2577V59.2436H285.091V71.8761H285.069ZM281.667 63.6749C280.961 62.7269 279.834 62.1096 278.531 62.1096C276.543 62.1096 275.262 63.741 275.262 65.5709C275.262 67.555 276.698 69.0101 278.597 69.0101C279.878 69.0101 281.005 68.3928 281.645 67.4448V63.6749H281.667Z" />
<path d="M292.49 71.8763H289.088V53.3794H292.49V71.8763Z" />
<path d="M298.21 52.5857C299.447 52.5857 300.419 53.5337 300.419 54.7462C300.419 55.9588 299.425 56.9068 298.21 56.9068C296.995 56.9068 296.001 55.9588 296.001 54.7462C296.001 53.5337 296.995 52.5857 298.21 52.5857ZM299.911 71.8542H296.509V59.2216H299.911V71.8542Z" />
<path d="M312.566 56.2453C312.279 56.1571 311.859 56.1131 311.55 56.1131C310.711 56.1131 310.07 56.3556 309.651 56.8406C309.364 57.2154 309.187 57.6783 309.187 58.8468V59.2436H313.096V62.1097H309.187V71.8762H305.786V62.1097H302.517V59.2436H305.786V58.7145C305.786 56.6863 306.25 55.4517 307.133 54.5919C308.016 53.732 309.342 53.1147 311.064 53.1147C311.749 53.1147 312.367 53.1588 313.074 53.3573L312.544 56.2453H312.566Z" />
<path d="M321.003 58.979C324.846 58.979 327.74 61.9112 327.74 65.5709C327.74 69.2306 324.846 72.1407 321.003 72.1407C317.16 72.1407 314.267 69.2306 314.267 65.5709C314.267 61.9112 317.16 58.979 321.003 58.979ZM321.003 69.0101C322.991 69.0101 324.338 67.4668 324.338 65.5709C324.338 63.6749 322.991 62.1096 321.003 62.1096C319.015 62.1096 317.668 63.6749 317.668 65.5709C317.668 67.4668 319.015 69.0101 321.003 69.0101Z" />
<path d="M338.429 62.2419C338.186 62.1537 337.701 62.1096 337.193 62.1096C335.713 62.1096 334.52 63.1678 334.123 63.9394V71.8761H330.721V59.2436H333.99V60.5223C334.741 59.5743 336.132 58.979 337.678 58.979C338.164 58.979 338.451 59.0231 338.827 59.0892L338.429 62.2419Z" />
<path d="M341.566 71.8761V59.2436H344.834V60.2577C345.806 59.4861 346.999 58.979 348.412 58.979C350.157 58.979 351.747 59.7506 352.786 61.0073C353.625 61.9994 354.089 63.278 354.089 65.4386V71.8761H350.687V65.174C350.687 63.9174 350.4 63.278 349.936 62.8151C349.495 62.3741 348.81 62.1096 348.037 62.1096C346.601 62.1096 345.431 63.0135 344.967 63.6749V71.8761H341.566Z" />
<path d="M359.566 52.5857C360.803 52.5857 361.775 53.5337 361.775 54.7462C361.775 55.9588 360.781 56.9068 359.566 56.9068C358.351 56.9068 357.357 55.9588 357.357 54.7462C357.357 53.5337 358.351 52.5857 359.566 52.5857ZM361.267 71.8542H357.865V59.2216H361.267V71.8542Z" />
<path d="M377.412 71.8761H374.143V70.862C373.105 71.7438 371.89 72.1407 370.631 72.1407C368.754 72.1407 366.987 71.3029 365.861 70.0022C364.867 68.8558 364.248 67.2905 364.248 65.5709C364.248 61.845 367.009 58.979 370.455 58.979C371.89 58.979 373.171 59.442 374.165 60.2577V59.2436H377.434V71.8761H377.412ZM374.011 63.6749C373.304 62.7269 372.177 62.1096 370.874 62.1096C368.886 62.1096 367.605 63.741 367.605 65.5709C367.605 67.555 369.041 69.0101 370.941 69.0101C372.222 69.0101 373.348 68.3928 373.988 67.4448V63.6749H374.011Z" />
<path d="M390.973 62.7491C390.973 66.2986 393.689 69.0103 397.201 69.0103C399.587 69.0103 401.287 67.8638 402.369 66.4749L404.799 68.6355C403.187 70.6858 400.47 72.1188 397.135 72.1188C391.437 72.1188 387.461 67.9741 387.461 62.7491C387.461 57.5241 391.392 53.3794 397.091 53.3794C399.807 53.3794 402.126 54.3935 403.761 55.9809L401.486 58.3839C400.382 57.2816 398.858 56.51 397.047 56.51C393.579 56.51 390.973 59.2878 390.973 62.7711V62.7491Z" />
<path d="M413.103 58.979C416.946 58.979 419.84 61.9112 419.84 65.5709C419.84 69.2306 416.946 72.1407 413.103 72.1407C409.26 72.1407 406.367 69.2306 406.367 65.5709C406.367 61.9112 409.26 58.979 413.103 58.979ZM413.103 69.0101C415.091 69.0101 416.438 67.4668 416.438 65.5709C416.438 63.6749 415.091 62.1096 413.103 62.1096C411.116 62.1096 409.768 63.6749 409.768 65.5709C409.768 67.4668 411.116 69.0101 413.103 69.0101Z" />
<path d="M426.223 71.8763H422.821V53.3794H426.223V71.8763Z" />
<path d="M433.644 71.8763H430.242V53.3794H433.644V71.8763Z" />
<path d="M448.419 69.8699C447.183 71.325 445.195 72.1407 443.229 72.1407C439.452 72.1407 436.603 69.5392 436.603 65.5709C436.603 62.0655 439.011 58.979 442.765 58.979C446.255 58.979 448.729 61.9112 448.729 65.4386C448.729 65.7693 448.707 66.122 448.64 66.4086H439.872C440.049 68.1723 441.484 69.4069 443.295 69.4069C444.731 69.4069 445.88 68.5912 446.476 67.9519L448.397 69.8699H448.419ZM445.261 63.9394C445.151 62.8151 444.135 61.7348 442.765 61.7348C441.396 61.7348 440.203 62.793 440.049 63.9394H445.261Z" />
<path d="M464.101 71.1708C464.101 73.4416 463.703 74.7864 462.952 75.8667C461.804 77.454 459.772 78.402 457.342 78.402C454.913 78.402 452.505 77.2556 451.269 75.8005L453.411 73.5959C454.096 74.3234 455.266 75.4258 457.342 75.4258C458.447 75.4258 459.352 75.0951 459.926 74.4116C460.457 73.8384 460.699 73.0668 460.699 71.4354V71.0165C459.684 71.7881 458.579 72.1629 457.298 72.1629C455.421 72.1629 453.61 71.3251 452.505 70.0244C451.512 68.878 450.915 67.3127 450.915 65.5931C450.915 61.8672 453.676 59.0012 457.122 59.0012C458.557 59.0012 459.838 59.4642 460.832 60.2799V59.2658H464.101V71.1929V71.1708ZM460.699 63.675C459.993 62.7271 458.866 62.1098 457.563 62.1098C455.575 62.1098 454.294 63.7412 454.294 65.571C454.294 67.5552 455.73 69.0103 457.629 69.0103C458.911 69.0103 460.037 68.393 460.677 67.445V63.675H460.699Z" />
<path d="M478.921 69.8699C477.684 71.325 475.696 72.1407 473.73 72.1407C469.954 72.1407 467.105 69.5392 467.105 65.5709C467.105 62.0655 469.512 58.979 473.267 58.979C476.756 58.979 479.23 61.9112 479.23 65.4386C479.23 65.7693 479.208 66.122 479.142 66.4086H470.373C470.55 68.1723 471.986 69.4069 473.797 69.4069C475.232 69.4069 476.381 68.5912 476.977 67.9519L478.899 69.8699H478.921ZM475.762 63.9394C475.652 62.8151 474.636 61.7348 473.267 61.7348C471.897 61.7348 470.705 62.793 470.55 63.9394H475.762Z" />
<path d="M495.11 58.979C498.953 58.979 501.846 61.9112 501.846 65.5709C501.846 69.2306 498.953 72.1407 495.11 72.1407C491.267 72.1407 488.374 69.2306 488.374 65.5709C488.374 61.9112 491.267 58.979 495.11 58.979ZM495.11 69.0101C497.098 69.0101 498.445 67.4668 498.445 65.5709C498.445 63.6749 497.098 62.1096 495.11 62.1096C493.122 62.1096 491.775 63.6749 491.775 65.5709C491.775 67.4668 493.122 69.0101 495.11 69.0101Z" />
<path d="M513.177 56.2453C512.89 56.1571 512.47 56.1131 512.161 56.1131C511.321 56.1131 510.681 56.3556 510.261 56.8406C509.974 57.2154 509.798 57.6783 509.798 58.8468V59.2436H513.707V62.1097H509.798V71.8762H506.396V62.1097H503.127V59.2436H506.396V58.7145C506.396 56.6863 506.86 55.4517 507.743 54.5919C508.627 53.732 509.952 53.1147 511.675 53.1147C512.36 53.1147 512.978 53.1588 513.685 53.3573L513.155 56.2453H513.177Z" />
<path d="M533.165 71.8762C532.723 72.0305 531.707 72.1408 531.045 72.1408C529.013 72.1408 527.533 71.4573 526.671 70.3109C526.009 69.4511 525.722 68.3267 525.722 66.541V62.1097H522.21V59.2437H525.722V55.7383H529.123V59.2437H533.297V62.1097H529.123V66.9378C529.123 67.7094 529.256 68.1945 529.543 68.5252C529.874 68.922 530.426 69.1425 531.265 69.1425C531.751 69.1425 532.414 69.0543 532.657 69.0102L533.187 71.8762H533.165Z" />
<path d="M539.548 71.8763H536.147V53.3794H539.548V60.1476C540.475 59.4201 541.69 58.9792 542.993 58.9792C544.738 58.9792 546.328 59.7508 547.366 61.0074C548.206 61.9995 548.67 63.2782 548.67 65.4387V71.8763H545.268V65.1742C545.268 63.9175 544.981 63.2782 544.517 62.8152C544.076 62.3743 543.391 62.1097 542.618 62.1097C541.182 62.1097 540.012 63.0136 539.548 63.675V71.8763Z" />
<path d="M563.224 69.8699C561.988 71.325 560 72.1407 558.034 72.1407C554.257 72.1407 551.408 69.5392 551.408 65.5709C551.408 62.0655 553.816 58.979 557.57 58.979C561.06 58.979 563.534 61.9112 563.534 65.4386C563.534 65.7693 563.512 66.122 563.445 66.4086H554.677C554.854 68.1723 556.289 69.4069 558.1 69.4069C559.536 69.4069 560.684 68.5912 561.281 67.9519L563.202 69.8699H563.224ZM560.066 63.9394C559.956 62.8151 558.94 61.7348 557.57 61.7348C556.201 61.7348 555.008 62.793 554.854 63.9394H560.066Z" />
<path d="M571.75 71.8761L579.568 53.6438H582.042L589.861 71.8761H586.172L584.449 67.8417H577.117L575.394 71.8761H571.706H571.75ZM578.486 64.7111H583.124L580.805 59.3097L578.486 64.7111Z" />
<path d="M599.424 62.2419C599.181 62.1537 598.695 62.1096 598.209 62.1096C596.729 62.1096 595.537 63.1678 595.139 63.9394V71.8761H591.738V59.2436H595.007V60.5223C595.758 59.5743 597.149 58.979 598.695 58.979C599.181 58.979 599.468 59.0231 599.844 59.0892L599.446 62.2419H599.424Z" />
<path d="M612.61 71.8762C612.168 72.0305 611.152 72.1408 610.489 72.1408C608.457 72.1408 606.978 71.4573 606.116 70.3109C605.454 69.4511 605.166 68.3267 605.166 66.541V62.1097H601.655V59.2437H605.166V55.7383H608.568V59.2437H612.742V62.1097H608.568V66.9378C608.568 67.7094 608.7 68.1945 608.987 68.5252C609.319 68.922 609.871 69.1425 610.71 69.1425C611.196 69.1425 611.859 69.0543 612.102 69.0102L612.632 71.8762H612.61Z" />
<path d="M616.519 68.0182C617.38 68.7898 618.705 69.2748 619.986 69.2748C620.892 69.2748 621.599 68.8339 621.599 68.2166C621.599 66.3206 615.459 66.982 615.459 62.9255C615.459 60.5004 617.8 59.0012 620.318 59.0012C621.952 59.0012 623.763 59.6185 624.602 60.2799L623.012 62.7271C622.35 62.2641 621.488 61.8672 620.583 61.8672C619.677 61.8672 618.86 62.242 618.86 62.8814C618.86 64.5128 625 63.8735 625 68.2386C625 70.6637 622.637 72.1408 619.964 72.1408C618.219 72.1408 616.364 71.5456 614.884 70.4433L616.519 68.0182Z" />
</g>
</g>
<defs>
<clipPath id="clip0_1740_912">
<rect width="625" height="78" fill="white" transform="translate(0 0.379883)"/>
</clipPath>
</defs>
</svg>
