<?xml version="1.0" encoding="UTF-8"?><svg id="Layer_2" xmlns="http://www.w3.org/2000/svg" viewBox="0 0 2687.61 731.35"><g id="Layer_1-2"><path d="m415.15,701.28v28.73H69.84L0,686.26V5.21h412.57v30.05H69.84v326.48h252.84v28.08H69.84v311.46h345.32Z"/><path d="m565.17,494.94l139.68,235.07h-61.43s-51.09-97.29-108.64-190.66l-108.64,190.66h-58.2s69.84-111,138.38-235.07c-12.93-18.94-34.27-41.79-46.56-57.46-65.96-86.19-72.43-166.5-34.27-230.5h67.9c-127.39,107.74-43.33,181.52,41.39,249.43,66.61-121.45,120.93-248.78,120.93-248.78h61.43l-151.96,287.3Z"/><path d="m1042.4,410.71v319.3h-61.43v-210.25c3.88-24.16,42.68-131.25,34.92-154.75-16.81-47.67-142.26-133.86-188.18-114.92-20.05,8.49-34.92,56.15-45.91,95.33v384.59h-61.43V0h61.43v306.24c7.76-30.69,23.28-68.56,47.85-82.27,42.68-24.81,95.71-18.28,144.2,15.02,23.28,15.67,54.32,43.1,63.37,88.15,5.82,30.04,5.17,62.03,5.17,83.58Z"/><path d="m1127.11,99.25c0,11.75-5.82,22.2-15.52,28.73h-35.57c-9.7-6.53-15.52-16.98-15.52-28.73,0-18.94,14.87-34.61,33.63-34.61s33.63,15.67,32.98,34.61Zm-62.08,630.76V207.64h58.85v522.37h-58.85Z"/><path d="m1520.93,573.3c-30.39,118.84-93.12,156.71-150.02,156.71-91.83,0-140.33-86.84-140.33-86.84v86.84h-58.2V5.21h60.14v329.11s32.33-104.47,93.77-121.45c81.48-22.85,266.42,80.97,194.64,360.43Zm-241.85,38.53c38.15,73.78,151.97,144.96,208.22,7.84,53.67-165.2-35.57-321.26-125.45-349.99-104.76-33.3-131.27,101.21-131.27,101.21v240.94h48.5Z"/><path d="m1620.51,99.25c0,11.75-5.82,22.2-15.52,28.73h-35.57c-9.7-6.53-15.52-16.98-15.52-28.73,0-18.94,14.87-34.61,33.63-34.61s33.63,15.67,32.98,34.61Zm-62.08,630.76V207.64h58.85v522.37h-58.85Z"/><path d="m1693.58,226.84h-86.01v-21.81h86.01V68.56h60.14v137.12h110.58v23.51h-110.58v435.52c0,11.1-.65,19.59,5.17,26.12,7.76,7.18,18.11,11.75,31.69,13.71,7.76-.65,11.64-8.49,18.75-28.08,8.41-22.85,11.64-42.44,12.93-48.32l52.38,17.63c-7.11,25.47-43.33,54.2-57.55,63.99-33.63,23.51-52.38,20.24-62.08,20.24-35.57-4.57-61.43-32.65-61.43-113.62V226.84Z"/><path d="m1940.6,99.25c0,11.75-5.82,22.2-15.52,28.73h-35.57c-9.7-6.53-15.52-16.98-15.52-28.73,0-18.94,14.87-34.61,33.63-34.61s33.63,15.67,32.98,34.61Zm-62.08,630.76V207.64h58.85v522.37h-58.85Z"/><path d="m2342.66,597.46c-9.05,24.16-58.2,122.1-152.61,132.55-109.28,11.75-195.29-54.2-234.74-179.56-42.03-133.86,19.4-284.43,98.94-323.6,0,0,83.42-47.93,181.71,3,56.26,28.73,86.65,87.5,86.65,87.5,62.08,103.17,42.03,220.05,20.05,280.12Zm-87.3-267.06c-23.93-51.58-81.48-116.23-173.95-91.41-173.95,47.01-63.37,524.33,143.56,459.68,19.4-5.88,40.74-26.12,54.32-61.38,60.79-152.79-23.93-306.89-23.93-306.89Z"/><path d="m2682.96,325.17c5.82,30.04,4.53,62.03,4.53,83.58v321.26h-61.43v-210.91c3.88-24.81,42.68-131.9,34.92-155.4-16.81-48.32-142.26-134.51-188.82-115.57-20.05,8.49-34.92,56.15-45.91,95.33v386.55h-61.43V207.64h61.43v96.64c7.76-30.69,22.63-68.56,47.21-82.93,43.33-24.16,97-17.63,145.5,15.02,23.28,16.32,54.32,43.75,64.02,88.8Z"/></g></svg>