<?xml version="1.0" encoding="UTF-8"?><svg id="Layer_2" xmlns="http://www.w3.org/2000/svg" viewBox="0 0 1872 121.65"><g id="Layer_1-2"><path d="m0,2.34h70.42v13.03H13.76v38.77h55.68v13.03H13.76v52.13H0V2.34Z"/><path d="m157.87,105.27h-1.97c-2.62,5.57-6.25,9.69-10.89,12.37-4.64,2.67-9.53,4.01-14.66,4.01s-10.32-.92-14.9-2.76c-4.59-1.84-8.6-4.57-12.04-8.19-3.44-3.62-6.14-8.05-8.11-13.28-1.96-5.23-2.95-11.31-2.95-18.21v-2.67c0-6.79.98-12.81,2.95-18.05,1.97-5.23,4.67-9.66,8.11-13.28,3.44-3.62,7.45-6.38,12.04-8.27,4.59-1.89,9.44-2.84,14.58-2.84,5.57,0,10.62,1.25,15.15,3.76,4.53,2.51,8.11,6.38,10.73,11.61h1.97v-13.03h12.77v65.84c0,3.34,1.47,5.01,4.42,5.01h4.09v12.03h-8.68c-3.71,0-6.74-1.22-9.09-3.68-2.35-2.45-3.52-5.57-3.52-9.36v-1Zm-26.2,4.01c3.82,0,7.34-.72,10.56-2.17,3.22-1.45,5.98-3.51,8.27-6.18,2.29-2.67,4.09-5.88,5.4-9.61,1.31-3.73,1.97-7.88,1.97-12.45v-2c0-4.46-.66-8.55-1.97-12.28-1.31-3.73-3.14-6.93-5.49-9.61-2.35-2.67-5.13-4.76-8.35-6.27-3.22-1.5-6.69-2.26-10.4-2.26s-7.32.73-10.48,2.17c-3.17,1.45-5.92,3.48-8.27,6.1-2.35,2.62-4.18,5.79-5.49,9.53-1.31,3.73-1.96,7.83-1.96,12.28v2.67c0,9.47,2.43,16.85,7.29,22.14,4.86,5.29,11.16,7.94,18.92,7.94Z"/><path d="m199.14,107.28h29.48V14.37h-28.5V2.34h41.27v104.94h29.48v12.03h-71.73v-12.03Z"/><path d="m299.36,107.28h29.48V14.37h-28.5V2.34h41.27v104.94h29.48v12.03h-71.73v-12.03Z"/><path d="m574.65,106.28v13.03h-77.62v-20.05c0-5.35.87-10,2.62-13.95,1.75-3.95,4.23-7.35,7.45-10.19,3.22-2.84,7.12-5.21,11.71-7.1,4.59-1.89,9.77-3.51,15.56-4.85,9.72-2.23,16.73-5.4,21.04-9.52,4.31-4.12,6.47-9.19,6.47-15.21v-1c0-3.01-.49-5.96-1.47-8.86-.98-2.9-2.51-5.52-4.59-7.85-2.07-2.34-4.72-4.2-7.94-5.6-3.22-1.39-7.07-2.09-11.55-2.09-8.41,0-14.93,2.62-19.57,7.85-4.64,5.24-6.96,12.2-6.96,20.89v7.35h-13.76v-8.35c0-5.35.87-10.47,2.62-15.37,1.75-4.9,4.31-9.25,7.7-13.03,3.38-3.79,7.59-6.79,12.61-9.02,5.02-2.23,10.81-3.34,17.36-3.34s12.45,1.03,17.36,3.09c4.91,2.06,9.01,4.79,12.28,8.19,3.27,3.4,5.7,7.24,7.29,11.53,1.58,4.29,2.37,8.66,2.37,13.12v3.01c0,8.91-2.73,16.52-8.19,22.81-5.46,6.29-14.2,10.78-26.2,13.45-10.48,2.34-18.18,5.43-23.09,9.27-4.91,3.84-7.37,9.44-7.37,16.79v5.01h63.87Z"/><path d="m595.61,47.79c0-15.15,3.55-26.9,10.64-35.26,7.1-8.35,16.97-12.53,29.64-12.53s22.54,4.18,29.64,12.53c7.1,8.36,10.65,20.11,10.65,35.26v26.07c0,15.6-3.55,27.46-10.65,35.59-7.1,8.13-16.98,12.2-29.64,12.2s-22.55-4.07-29.64-12.2c-7.1-8.13-10.64-20-10.64-35.59v-26.07Zm40.29,61.16c8.84,0,15.48-3.15,19.9-9.44,4.42-6.29,6.63-15.18,6.63-26.65v-24.06c0-5.35-.55-10.22-1.64-14.62-1.09-4.4-2.76-8.19-5-11.36-2.24-3.17-5.02-5.65-8.35-7.44-3.33-1.78-7.18-2.67-11.55-2.67s-8.35.89-11.63,2.67c-3.28,1.78-6.03,4.26-8.27,7.44-2.24,3.18-3.91,6.96-5,11.36-1.09,4.4-1.64,9.27-1.64,14.62v24.06c0,11.47,2.21,20.36,6.63,26.65,4.42,6.3,11.05,9.44,19.9,9.44Zm-10.48-48.13c0-2.9,1.04-5.4,3.11-7.52,2.07-2.11,4.53-3.17,7.37-3.17s5.29,1.06,7.37,3.17c2.07,2.12,3.11,4.62,3.11,7.52s-1.04,5.41-3.11,7.52c-2.07,2.12-4.53,3.18-7.37,3.18s-5.3-1.06-7.37-3.18c-2.07-2.11-3.11-4.62-3.11-7.52Z"/><path d="m775.1,106.28v13.03h-77.62v-20.05c0-5.35.87-10,2.62-13.95,1.75-3.95,4.23-7.35,7.45-10.19,3.22-2.84,7.12-5.21,11.71-7.1,4.59-1.89,9.77-3.51,15.56-4.85,9.72-2.23,16.73-5.4,21.04-9.52,4.31-4.12,6.47-9.19,6.47-15.21v-1c0-3.01-.49-5.96-1.47-8.86-.98-2.9-2.51-5.52-4.59-7.85-2.07-2.34-4.72-4.2-7.94-5.6-3.22-1.39-7.07-2.09-11.55-2.09-8.41,0-14.93,2.62-19.57,7.85-4.64,5.24-6.96,12.2-6.96,20.89v7.35h-13.76v-8.35c0-5.35.87-10.47,2.62-15.37,1.75-4.9,4.31-9.25,7.7-13.03,3.38-3.79,7.59-6.79,12.61-9.02,5.02-2.23,10.81-3.34,17.36-3.34s12.45,1.03,17.36,3.09c4.91,2.06,9.01,4.79,12.28,8.19,3.27,3.4,5.7,7.24,7.29,11.53,1.58,4.29,2.37,8.66,2.37,13.12v3.01c0,8.91-2.73,16.52-8.19,22.81-5.46,6.29-14.2,10.78-26.2,13.45-10.48,2.34-18.18,5.43-23.09,9.27-4.91,3.84-7.37,9.44-7.37,16.79v5.01h63.87Z"/><path d="m825.05,61.16v-19.38l37.34-24.4v-2.01h-64.85V2.34h76.64v21.39l-37.34,24.4v2.01h6.55c4.36,0,8.57.72,12.61,2.17,4.04,1.45,7.61,3.57,10.73,6.35,3.11,2.79,5.62,6.21,7.53,10.28,1.91,4.07,2.87,8.77,2.87,14.12v3.01c0,5.01-.98,9.69-2.95,14.04-1.97,4.35-4.7,8.11-8.19,11.28-3.49,3.18-7.61,5.68-12.36,7.52-4.75,1.84-9.91,2.76-15.48,2.76-6.44,0-12.23-1-17.36-3.01-5.13-2-9.5-4.76-13.1-8.27-3.6-3.51-6.36-7.63-8.27-12.37-1.91-4.73-2.87-9.78-2.87-15.12v-9.02h13.76v8.02c0,4.24.68,8,2.05,11.28,1.36,3.29,3.27,6.07,5.73,8.36,2.46,2.28,5.38,4.04,8.76,5.26,3.38,1.23,7.04,1.84,10.97,1.84,3.6,0,6.96-.61,10.07-1.84,3.11-1.22,5.81-2.93,8.11-5.1,2.29-2.17,4.09-4.73,5.4-7.69,1.31-2.95,1.97-6.1,1.97-9.44v-1c0-7.02-2.19-12.5-6.55-16.46-4.37-3.95-9.82-5.93-16.38-5.93h-15.39Z"/><path d="m1002.24,2.34h70.42v13.03h-56.66v38.77h55.68v13.03h-55.68v52.13h-13.76V2.34Z"/><path d="m1103.12,107.28h28.5v-58.82h-25.55v-12.03h38.32v70.85h26.53v12.03h-67.8v-12.03Zm23.25-95.58c0-3.23,1.12-5.99,3.36-8.27,2.24-2.28,4.94-3.42,8.11-3.42s5.87,1.14,8.11,3.42c2.24,2.28,3.36,5.04,3.36,8.27s-1.12,5.99-3.36,8.27c-2.24,2.28-4.94,3.43-8.11,3.43s-5.87-1.14-8.11-3.43c-2.24-2.28-3.36-5.04-3.36-8.27Z"/><path d="m1214.15,119.31h-12.77V36.43h12.77v14.04h1.96c5.02-10.92,13.76-16.38,26.2-16.38,9.39,0,16.87,2.98,22.44,8.94,5.57,5.96,8.35,14.9,8.35,26.82v49.46h-12.77v-46.79c0-8.69-1.91-15.21-5.73-19.55-3.82-4.35-9.01-6.52-15.56-6.52-7.75,0-13.84,2.7-18.26,8.11-4.42,5.4-6.63,12.62-6.63,21.64v43.11Z"/><path d="m1310.94,81.88c.33,8.25,2.84,14.87,7.53,19.89,4.69,5.01,11.24,7.52,19.65,7.52,3.82,0,7.15-.44,9.99-1.34,2.84-.89,5.27-2.12,7.29-3.68,2.02-1.56,3.66-3.37,4.91-5.43,1.25-2.06,2.26-4.26,3.03-6.6l12.12,3.34c-2.29,7.69-6.53,13.95-12.69,18.8-6.17,4.85-14.49,7.27-24.97,7.27-5.79,0-11.11-1.03-15.97-3.09-4.86-2.06-9.04-4.98-12.53-8.77-3.5-3.79-6.22-8.3-8.19-13.53-1.97-5.23-2.95-11.03-2.95-17.38v-4.01c0-5.79,1.01-11.19,3.03-16.21,2.02-5.01,4.83-9.33,8.43-12.95,3.6-3.62,7.83-6.46,12.69-8.52,4.86-2.06,10.13-3.09,15.8-3.09,6.66,0,12.42,1.25,17.28,3.76,4.86,2.51,8.84,5.6,11.95,9.27,3.11,3.68,5.4,7.69,6.88,12.03,1.47,4.35,2.21,8.36,2.21,12.03v10.69h-65.51Zm27.18-35.43c-3.6,0-6.96.59-10.07,1.76-3.11,1.17-5.84,2.81-8.19,4.93-2.35,2.12-4.26,4.59-5.73,7.43-1.47,2.84-2.43,5.93-2.87,9.27h52.4c-.22-3.56-1.06-6.79-2.54-9.69-1.47-2.9-3.39-5.35-5.73-7.35-2.35-2-5.02-3.56-8.02-4.68-3-1.11-6.09-1.67-9.25-1.67Z"/><path d="m1562.48,90.23h-49.13l-8.35,29.08h-14.74l34.72-116.97h25.88l34.72,116.97h-14.74l-8.35-29.08Zm-25.55-81.88l-19.82,68.85h41.6l-19.82-68.85h-1.96Z"/><path d="m1597.69,36.43h29.48v11.03h1.97c2.07-4.57,5.02-7.94,8.84-10.11,3.82-2.17,8.19-3.26,13.1-3.26,8.19,0,14.79,2.73,19.82,8.19,5.02,5.46,7.7,13.43,8.02,23.9l-13.43,2.01c0-7.69-1.8-13.23-5.4-16.63-3.6-3.4-8.02-5.1-13.27-5.1-3.39,0-6.3.67-8.76,2.01-2.46,1.34-4.5,3.17-6.14,5.51s-2.84,5.07-3.6,8.19c-.76,3.12-1.15,6.46-1.15,10.03v35.09h20.63v12.03h-52.08v-12.03h18.67v-58.82h-16.7v-12.03Z"/><path d="m1699.72,36.43h25.55V2.34h12.77v34.09h31.44v12.03h-31.44v53.81c0,3.34,1.47,5.01,4.42,5.01h23.09v12.03h-27.68c-3.71,0-6.74-1.22-9.09-3.68-2.35-2.45-3.52-5.57-3.52-9.36v-57.82h-25.55v-12.03Z"/><path d="m1819.59,57.82c0,4.01,1.66,7.07,5,9.19,3.33,2.12,9.42,3.51,18.26,4.18,9.5.78,16.73,3.09,21.7,6.93,4.97,3.84,7.45,9.44,7.45,16.79v1c0,4.01-.79,7.6-2.38,10.78-1.58,3.18-3.77,5.88-6.55,8.11-2.78,2.23-6.17,3.93-10.15,5.1-3.99,1.17-8.33,1.76-13.02,1.76-6.33,0-11.77-.86-16.29-2.59-4.53-1.73-8.3-4.01-11.3-6.85-3-2.84-5.27-6.07-6.8-9.69-1.53-3.62-2.4-7.27-2.62-10.94l12.12-3.01c.54,6.35,2.95,11.45,7.21,15.29,4.26,3.84,9.93,5.77,17.03,5.77,6,0,10.83-1.2,14.49-3.59,3.66-2.39,5.49-5.76,5.49-10.11,0-4.68-1.8-8.02-5.4-10.03-3.6-2-9.45-3.28-17.52-3.84-9.39-.67-16.6-2.9-21.62-6.68-5.02-3.79-7.53-9.3-7.53-16.54v-1c0-3.9.82-7.32,2.46-10.28,1.64-2.95,3.85-5.43,6.63-7.44,2.78-2.01,5.92-3.51,9.42-4.51,3.49-1,7.15-1.5,10.97-1.5,5.35,0,10.04.75,14.08,2.26,4.04,1.5,7.42,3.45,10.15,5.85,2.73,2.4,4.83,5.15,6.31,8.27,1.47,3.12,2.43,6.24,2.87,9.36l-12.12,3.01c-.55-5.35-2.65-9.53-6.3-12.53-3.66-3.01-8.43-4.51-14.33-4.51-2.29,0-4.5.25-6.63.75-2.13.5-4.01,1.25-5.65,2.26-1.64,1-2.95,2.26-3.93,3.76-.98,1.5-1.47,3.26-1.47,5.26Z"/></g></svg>