<?xml version="1.0" encoding="UTF-8"?><svg id="Layer_2" xmlns="http://www.w3.org/2000/svg" viewBox="0 0 3168 1836.23"><g id="Layer_1-2"><path d="m436.1,147.82h-87.3s-23.28-117.45-171.36-117.45c-80.83,0-122.22,120.75-102.82,219.06,19.4,101.61,405.45-28.37,405.45,176.83,0,152.42-139.68,306.16-261.25,306.16-210.16,0-214.69-159.02-214.69-181.45h74.37s.65,162.32,162.31,162.32c69.19,0,223.74-289.67,140.32-372.15C319.06,280.45,6.72,427.59.25,275.17-4.92,141.22,68.8,0,242.1,0c129.33,0,188.82,120.11,194,147.82Z"/><path d="m491.68,450.68c8.41,40.91,25.87,89.08,58.2,144.5,10.35,17.82,56.26,90.4,139.03,90.4,60.14,0,66.61-72.58,66.61-122.73h42.68c-10.99,69.28-45.91,169.58-143.56,169.58-62.73,0-117.05-45.53-137.74-73.24-23.28-32.33-127.39-180.13-28.45-369.51,31.04-50.81,64.02-69.94,103.47-81.16,46.56-12.54,153.9,13.86,194.64,122.07,15.52,43.55,17.46,106.89,14.23,120.09h-309.1Zm-3.88-22.43h259.96c-.65-27.71-25.87-139.89-101.53-170.9-64.02-25.73-115.75-7.92-142.91,46.19,0,0-26.51,43.55-15.52,124.71Z"/><path d="m1129.96,323.33c5.82,30.35,4.53,62.68,4.53,84.46v324.64h-61.43v-213.13c3.88-25.07,42.68-133.29,34.92-157.04-16.81-48.83-142.26-135.93-188.82-116.79-20.05,8.58-34.92,56.75-45.91,96.34v390.62h-61.43V204.56h61.43v97.66c7.76-31.01,22.63-69.28,47.21-83.8,43.33-24.41,97-17.82,145.5,15.18,23.28,16.5,54.32,44.21,64.02,89.74Z"/><path d="m1261.23,95.03c0,11.88-5.82,22.43-15.52,29.03h-35.57c-9.7-6.6-15.52-17.16-15.52-29.03,0-19.13,14.87-34.97,33.63-34.97s33.63,15.84,32.98,34.97Zm-62.08,637.4V204.56h58.85v527.87h-58.85Z"/><path d="m1663.28,598.49c-9.05,24.41-58.2,123.39-152.61,133.95-109.29,11.88-195.29-54.77-234.74-181.45-42.03-135.27,19.4-287.42,98.94-327.01,0,0,83.42-48.43,181.71,3.03,56.26,29.03,86.65,88.42,86.65,88.42,62.08,104.25,42.03,222.36,20.05,283.07Zm-87.3-269.87c-23.93-52.13-81.48-117.45-173.95-92.38-173.95,47.51-63.37,529.85,143.56,464.52,19.4-5.94,40.74-26.39,54.32-62.02,60.79-154.4-23.93-310.12-23.93-310.12Z"/><path d="m1960.91,326.63h-80.83c-3.23-41.57-16.81-98.32-51.73-98.32-82.77,0-107.35,80.5-107.35,80.5v423.61h-57.55v-472.44c19.4,0,67.25-54.77,110.58-54.77,55.61,0,115.75,13.2,169.42,85.78,9.05,13.2,17.46,35.63,17.46,35.63Z"/><path d="m895.55,1806.16v28.73h-345.32l-69.84-43.75v-681.05h412.57v30.05h-342.73v326.48h252.84v28.08h-252.84v311.46h345.32Z"/><path d="m1045.57,1599.82l139.68,235.07h-61.43s-51.09-97.29-108.64-190.66l-108.64,190.66h-58.2s69.84-111,138.38-235.07c-12.93-18.94-34.27-41.79-46.56-57.46-65.96-86.19-72.43-166.5-34.27-230.5h67.9c-127.39,107.74-43.33,181.52,41.39,249.43,66.61-121.45,120.93-248.78,120.93-248.78h61.43l-151.96,287.3Z"/><path d="m1522.8,1515.59v319.3h-61.43v-210.25c3.88-24.16,42.68-131.25,34.92-154.75-16.81-47.67-142.26-133.86-188.18-114.92-20.05,8.49-34.92,56.15-45.91,95.33v384.59h-61.43v-730.01h61.43v306.24c7.76-30.69,23.28-68.56,47.85-82.27,42.68-24.81,95.71-18.28,144.2,15.02,23.28,15.67,54.32,43.1,63.37,88.15,5.82,30.04,5.17,62.03,5.17,83.58Z"/><path d="m1607.51,1204.13c0,11.75-5.82,22.2-15.52,28.73h-35.57c-9.7-6.53-15.52-16.98-15.52-28.73,0-18.94,14.87-34.61,33.63-34.61s33.63,15.67,32.98,34.61Zm-62.08,630.76v-522.37h58.85v522.37h-58.85Z"/><path d="m2001.32,1678.18c-30.39,118.84-93.12,156.71-150.02,156.71-91.83,0-140.33-86.84-140.33-86.84v86.84h-58.2v-724.8h60.14v329.11s32.33-104.47,93.77-121.45c81.48-22.85,266.42,80.97,194.64,360.43Zm-241.85,38.53c38.15,73.78,151.97,144.96,208.22,7.84,53.67-165.2-35.57-321.26-125.45-349.99-104.76-33.3-131.27,101.21-131.27,101.21v240.94h48.5Z"/><path d="m2100.9,1204.13c0,11.75-5.82,22.2-15.52,28.73h-35.57c-9.7-6.53-15.52-16.98-15.52-28.73,0-18.94,14.87-34.61,33.63-34.61s33.63,15.67,32.98,34.61Zm-62.08,630.76v-522.37h58.85v522.37h-58.85Z"/><path d="m2173.97,1331.72h-86.01v-21.81h86.01v-136.47h60.14v137.12h110.58v23.51h-110.58v435.52c0,11.1-.65,19.59,5.17,26.12,7.76,7.18,18.11,11.75,31.69,13.71,7.76-.65,11.64-8.49,18.75-28.08,8.41-22.85,11.64-42.44,12.93-48.32l52.38,17.63c-7.11,25.47-43.33,54.2-57.55,63.99-33.63,23.51-52.38,20.24-62.08,20.24-35.57-4.57-61.43-32.65-61.43-113.62v-389.55Z"/><path d="m2420.99,1204.13c0,11.75-5.82,22.2-15.52,28.73h-35.57c-9.7-6.53-15.52-16.98-15.52-28.73,0-18.94,14.87-34.61,33.63-34.61s33.63,15.67,32.98,34.61Zm-62.08,630.76v-522.37h58.85v522.37h-58.85Z"/><path d="m2823.05,1702.34c-9.05,24.16-58.2,122.1-152.61,132.55-109.28,11.75-195.29-54.2-234.74-179.56-42.03-133.86,19.4-284.43,98.94-323.6,0,0,83.42-47.93,181.71,3,56.26,28.73,86.65,87.5,86.65,87.5,62.08,103.17,42.03,220.05,20.05,280.12Zm-87.3-267.06c-23.93-51.58-81.48-116.23-173.95-91.41-173.95,47.01-63.37,524.33,143.56,459.68,19.4-5.88,40.74-26.12,54.32-61.38,60.79-152.79-23.93-306.89-23.93-306.89Z"/><path d="m3163.35,1430.05c5.82,30.04,4.53,62.03,4.53,83.58v321.26h-61.43v-210.91c3.88-24.81,42.68-131.9,34.92-155.4-16.81-48.32-142.26-134.51-188.82-115.57-20.05,8.49-34.92,56.15-45.91,95.33v386.55h-61.43v-522.37h61.43v96.64c7.76-30.69,22.63-68.56,47.21-82.93,43.33-24.16,97-17.63,145.5,15.02,23.28,16.32,54.32,43.75,64.02,88.8Z"/></g></svg>