<?xml version="1.0" encoding="UTF-8"?><svg id="Layer_2" xmlns="http://www.w3.org/2000/svg" viewBox="0 0 1960.91 733.79"><g id="Layer_1-2"><path d="m436.1,147.82h-87.3s-23.28-117.45-171.36-117.45c-80.83,0-122.22,120.75-102.82,219.06,19.4,101.61,405.45-28.37,405.45,176.83,0,152.42-139.68,306.16-261.25,306.16-210.16,0-214.69-159.02-214.69-181.45h74.37s.65,162.32,162.31,162.32c69.19,0,223.74-289.67,140.32-372.15C319.06,280.45,6.72,427.59.25,275.17-4.92,141.22,68.8,0,242.1,0c129.33,0,188.82,120.11,194,147.82Z"/><path d="m491.68,450.68c8.41,40.91,25.87,89.08,58.2,144.5,10.35,17.82,56.26,90.4,139.03,90.4,60.14,0,66.61-72.58,66.61-122.73h42.68c-10.99,69.28-45.91,169.58-143.56,169.58-62.73,0-117.05-45.53-137.74-73.24-23.28-32.33-127.39-180.13-28.45-369.51,31.04-50.81,64.02-69.94,103.47-81.16,46.56-12.54,153.9,13.86,194.64,122.07,15.52,43.55,17.46,106.89,14.23,120.09h-309.1Zm-3.88-22.43h259.96c-.65-27.71-25.87-139.89-101.53-170.9-64.02-25.73-115.75-7.92-142.91,46.19,0,0-26.51,43.55-15.52,124.71Z"/><path d="m1129.96,323.33c5.82,30.35,4.53,62.68,4.53,84.46v324.64h-61.43v-213.13c3.88-25.07,42.68-133.29,34.92-157.04-16.81-48.83-142.26-135.93-188.82-116.79-20.05,8.58-34.92,56.75-45.91,96.34v390.62h-61.43V204.56h61.43v97.66c7.76-31.01,22.63-69.28,47.21-83.8,43.33-24.41,97-17.82,145.5,15.18,23.28,16.5,54.32,44.21,64.02,89.74Z"/><path d="m1261.23,95.03c0,11.88-5.82,22.43-15.52,29.03h-35.57c-9.7-6.6-15.52-17.16-15.52-29.03,0-19.13,14.87-34.97,33.63-34.97s33.63,15.84,32.98,34.97Zm-62.08,637.4V204.56h58.85v527.87h-58.85Z"/><path d="m1663.28,598.49c-9.05,24.41-58.2,123.39-152.61,133.95-109.29,11.88-195.29-54.77-234.74-181.45-42.03-135.27,19.4-287.42,98.94-327.01,0,0,83.42-48.43,181.71,3.03,56.26,29.03,86.65,88.42,86.65,88.42,62.08,104.25,42.03,222.36,20.05,283.07Zm-87.3-269.87c-23.93-52.13-81.48-117.45-173.95-92.38-173.95,47.51-63.37,529.85,143.56,464.52,19.4-5.94,40.74-26.39,54.32-62.02,60.79-154.4-23.93-310.12-23.93-310.12Z"/><path d="m1960.91,326.63h-80.83c-3.23-41.57-16.81-98.32-51.73-98.32-82.77,0-107.35,80.5-107.35,80.5v423.61h-57.55v-472.44c19.4,0,67.25-54.77,110.58-54.77,55.61,0,115.75,13.2,169.42,85.78,9.05,13.2,17.46,35.63,17.46,35.63Z"/></g></svg>